<?xml version="1.0" encoding="utf-8" standalone="no"?>
<!DOCTYPE svg PUBLIC "-//W3C//DTD SVG 1.1//EN"
  "http://www.w3.org/Graphics/SVG/1.1/DTD/svg11.dtd">
<svg xmlns:xlink="http://www.w3.org/1999/xlink" width="388.582812pt" height="316.014531pt" viewBox="0 0 388.582812 316.014531" xmlns="http://www.w3.org/2000/svg" version="1.1">
 <metadata>
  <rdf:RDF xmlns:dc="http://purl.org/dc/elements/1.1/" xmlns:cc="http://creativecommons.org/ns#" xmlns:rdf="http://www.w3.org/1999/02/22-rdf-syntax-ns#">
   <cc:Work>
    <dc:type rdf:resource="http://purl.org/dc/dcmitype/StillImage"/>
    <dc:date>2026-04-26T23:34:24.319835</dc:date>
    <dc:format>image/svg+xml</dc:format>
    <dc:creator>
     <cc:Agent>
      <dc:title>Matplotlib v3.10.8, https://matplotlib.org/</dc:title>
     </cc:Agent>
    </dc:creator>
   </cc:Work>
  </rdf:RDF>
 </metadata>
 <defs>
  <style type="text/css">*{stroke-linejoin: round; stroke-linecap: butt}</style>
 </defs>
 <g id="figure_1">
  <g id="patch_1">
   <path d="M -0 316.014531 
L 388.582812 316.014531 
L 388.582812 0 
L -0 0 
z
" style="fill: #ffffff"/>
  </g>
  <g id="axes_1">
   <g id="patch_2">
    <path d="M 43.78125 278.458281 
L 373.43125 278.458281 
L 373.43125 21.558281 
L 43.78125 21.558281 
z
" style="fill: #ffffff"/>
   </g>
   <g id="matplotlib.axis_1">
    <g id="xtick_1">
     <g id="line2d_1">
      <path d="M 43.78125 278.458281 
L 43.78125 21.558281 
" clip-path="url(#pe72b978c63)" style="fill: none; stroke: #b0b0b0; stroke-opacity: 0.3; stroke-width: 0.8; stroke-linecap: square"/>
     </g>
     <g id="line2d_2">
      <defs>
       <path id="m4bbe762608" d="M 0 0 
L 0 3.5 
" style="stroke: #000000; stroke-width: 0.8"/>
      </defs>
      <g>
       <use xlink:href="#m4bbe762608" x="43.78125" y="278.458281" style="stroke: #000000; stroke-width: 0.8"/>
      </g>
     </g>
     <g id="text_1">
      <!-- 0.0 -->
      <g transform="translate(35.829688 293.056719) scale(0.1 -0.1)">
       <defs>
        <path id="DejaVuSans-30" d="M 2034 4250 
Q 1547 4250 1301 3770 
Q 1056 3291 1056 2328 
Q 1056 1369 1301 889 
Q 1547 409 2034 409 
Q 2525 409 2770 889 
Q 3016 1369 3016 2328 
Q 3016 3291 2770 3770 
Q 2525 4250 2034 4250 
z
M 2034 4750 
Q 2819 4750 3233 4129 
Q 3647 3509 3647 2328 
Q 3647 1150 3233 529 
Q 2819 -91 2034 -91 
Q 1250 -91 836 529 
Q 422 1150 422 2328 
Q 422 3509 836 4129 
Q 1250 4750 2034 4750 
z
" transform="scale(0.015625)"/>
        <path id="DejaVuSans-2e" d="M 684 794 
L 1344 794 
L 1344 0 
L 684 0 
L 684 794 
z
" transform="scale(0.015625)"/>
       </defs>
       <use xlink:href="#DejaVuSans-30"/>
       <use xlink:href="#DejaVuSans-2e" transform="translate(63.623047 0)"/>
       <use xlink:href="#DejaVuSans-30" transform="translate(95.410156 0)"/>
      </g>
     </g>
    </g>
    <g id="xtick_2">
     <g id="line2d_3">
      <path d="M 109.71125 278.458281 
L 109.71125 21.558281 
" clip-path="url(#pe72b978c63)" style="fill: none; stroke: #b0b0b0; stroke-opacity: 0.3; stroke-width: 0.8; stroke-linecap: square"/>
     </g>
     <g id="line2d_4">
      <g>
       <use xlink:href="#m4bbe762608" x="109.71125" y="278.458281" style="stroke: #000000; stroke-width: 0.8"/>
      </g>
     </g>
     <g id="text_2">
      <!-- 0.2 -->
      <g transform="translate(101.759688 293.056719) scale(0.1 -0.1)">
       <defs>
        <path id="DejaVuSans-32" d="M 1228 531 
L 3431 531 
L 3431 0 
L 469 0 
L 469 531 
Q 828 903 1448 1529 
Q 2069 2156 2228 2338 
Q 2531 2678 2651 2914 
Q 2772 3150 2772 3378 
Q 2772 3750 2511 3984 
Q 2250 4219 1831 4219 
Q 1534 4219 1204 4116 
Q 875 4013 500 3803 
L 500 4441 
Q 881 4594 1212 4672 
Q 1544 4750 1819 4750 
Q 2544 4750 2975 4387 
Q 3406 4025 3406 3419 
Q 3406 3131 3298 2873 
Q 3191 2616 2906 2266 
Q 2828 2175 2409 1742 
Q 1991 1309 1228 531 
z
" transform="scale(0.015625)"/>
       </defs>
       <use xlink:href="#DejaVuSans-30"/>
       <use xlink:href="#DejaVuSans-2e" transform="translate(63.623047 0)"/>
       <use xlink:href="#DejaVuSans-32" transform="translate(95.410156 0)"/>
      </g>
     </g>
    </g>
    <g id="xtick_3">
     <g id="line2d_5">
      <path d="M 175.64125 278.458281 
L 175.64125 21.558281 
" clip-path="url(#pe72b978c63)" style="fill: none; stroke: #b0b0b0; stroke-opacity: 0.3; stroke-width: 0.8; stroke-linecap: square"/>
     </g>
     <g id="line2d_6">
      <g>
       <use xlink:href="#m4bbe762608" x="175.64125" y="278.458281" style="stroke: #000000; stroke-width: 0.8"/>
      </g>
     </g>
     <g id="text_3">
      <!-- 0.4 -->
      <g transform="translate(167.689687 293.056719) scale(0.1 -0.1)">
       <defs>
        <path id="DejaVuSans-34" d="M 2419 4116 
L 825 1625 
L 2419 1625 
L 2419 4116 
z
M 2253 4666 
L 3047 4666 
L 3047 1625 
L 3713 1625 
L 3713 1100 
L 3047 1100 
L 3047 0 
L 2419 0 
L 2419 1100 
L 313 1100 
L 313 1709 
L 2253 4666 
z
" transform="scale(0.015625)"/>
       </defs>
       <use xlink:href="#DejaVuSans-30"/>
       <use xlink:href="#DejaVuSans-2e" transform="translate(63.623047 0)"/>
       <use xlink:href="#DejaVuSans-34" transform="translate(95.410156 0)"/>
      </g>
     </g>
    </g>
    <g id="xtick_4">
     <g id="line2d_7">
      <path d="M 241.57125 278.458281 
L 241.57125 21.558281 
" clip-path="url(#pe72b978c63)" style="fill: none; stroke: #b0b0b0; stroke-opacity: 0.3; stroke-width: 0.8; stroke-linecap: square"/>
     </g>
     <g id="line2d_8">
      <g>
       <use xlink:href="#m4bbe762608" x="241.57125" y="278.458281" style="stroke: #000000; stroke-width: 0.8"/>
      </g>
     </g>
     <g id="text_4">
      <!-- 0.6 -->
      <g transform="translate(233.619688 293.056719) scale(0.1 -0.1)">
       <defs>
        <path id="DejaVuSans-36" d="M 2113 2584 
Q 1688 2584 1439 2293 
Q 1191 2003 1191 1497 
Q 1191 994 1439 701 
Q 1688 409 2113 409 
Q 2538 409 2786 701 
Q 3034 994 3034 1497 
Q 3034 2003 2786 2293 
Q 2538 2584 2113 2584 
z
M 3366 4563 
L 3366 3988 
Q 3128 4100 2886 4159 
Q 2644 4219 2406 4219 
Q 1781 4219 1451 3797 
Q 1122 3375 1075 2522 
Q 1259 2794 1537 2939 
Q 1816 3084 2150 3084 
Q 2853 3084 3261 2657 
Q 3669 2231 3669 1497 
Q 3669 778 3244 343 
Q 2819 -91 2113 -91 
Q 1303 -91 875 529 
Q 447 1150 447 2328 
Q 447 3434 972 4092 
Q 1497 4750 2381 4750 
Q 2619 4750 2861 4703 
Q 3103 4656 3366 4563 
z
" transform="scale(0.015625)"/>
       </defs>
       <use xlink:href="#DejaVuSans-30"/>
       <use xlink:href="#DejaVuSans-2e" transform="translate(63.623047 0)"/>
       <use xlink:href="#DejaVuSans-36" transform="translate(95.410156 0)"/>
      </g>
     </g>
    </g>
    <g id="xtick_5">
     <g id="line2d_9">
      <path d="M 307.50125 278.458281 
L 307.50125 21.558281 
" clip-path="url(#pe72b978c63)" style="fill: none; stroke: #b0b0b0; stroke-opacity: 0.3; stroke-width: 0.8; stroke-linecap: square"/>
     </g>
     <g id="line2d_10">
      <g>
       <use xlink:href="#m4bbe762608" x="307.50125" y="278.458281" style="stroke: #000000; stroke-width: 0.8"/>
      </g>
     </g>
     <g id="text_5">
      <!-- 0.8 -->
      <g transform="translate(299.549687 293.056719) scale(0.1 -0.1)">
       <defs>
        <path id="DejaVuSans-38" d="M 2034 2216 
Q 1584 2216 1326 1975 
Q 1069 1734 1069 1313 
Q 1069 891 1326 650 
Q 1584 409 2034 409 
Q 2484 409 2743 651 
Q 3003 894 3003 1313 
Q 3003 1734 2745 1975 
Q 2488 2216 2034 2216 
z
M 1403 2484 
Q 997 2584 770 2862 
Q 544 3141 544 3541 
Q 544 4100 942 4425 
Q 1341 4750 2034 4750 
Q 2731 4750 3128 4425 
Q 3525 4100 3525 3541 
Q 3525 3141 3298 2862 
Q 3072 2584 2669 2484 
Q 3125 2378 3379 2068 
Q 3634 1759 3634 1313 
Q 3634 634 3220 271 
Q 2806 -91 2034 -91 
Q 1263 -91 848 271 
Q 434 634 434 1313 
Q 434 1759 690 2068 
Q 947 2378 1403 2484 
z
M 1172 3481 
Q 1172 3119 1398 2916 
Q 1625 2713 2034 2713 
Q 2441 2713 2670 2916 
Q 2900 3119 2900 3481 
Q 2900 3844 2670 4047 
Q 2441 4250 2034 4250 
Q 1625 4250 1398 4047 
Q 1172 3844 1172 3481 
z
" transform="scale(0.015625)"/>
       </defs>
       <use xlink:href="#DejaVuSans-30"/>
       <use xlink:href="#DejaVuSans-2e" transform="translate(63.623047 0)"/>
       <use xlink:href="#DejaVuSans-38" transform="translate(95.410156 0)"/>
      </g>
     </g>
    </g>
    <g id="xtick_6">
     <g id="line2d_11">
      <path d="M 373.43125 278.458281 
L 373.43125 21.558281 
" clip-path="url(#pe72b978c63)" style="fill: none; stroke: #b0b0b0; stroke-opacity: 0.3; stroke-width: 0.8; stroke-linecap: square"/>
     </g>
     <g id="line2d_12">
      <g>
       <use xlink:href="#m4bbe762608" x="373.43125" y="278.458281" style="stroke: #000000; stroke-width: 0.8"/>
      </g>
     </g>
     <g id="text_6">
      <!-- 1.0 -->
      <g transform="translate(365.479687 293.056719) scale(0.1 -0.1)">
       <defs>
        <path id="DejaVuSans-31" d="M 794 531 
L 1825 531 
L 1825 4091 
L 703 3866 
L 703 4441 
L 1819 4666 
L 2450 4666 
L 2450 531 
L 3481 531 
L 3481 0 
L 794 0 
L 794 531 
z
" transform="scale(0.015625)"/>
       </defs>
       <use xlink:href="#DejaVuSans-31"/>
       <use xlink:href="#DejaVuSans-2e" transform="translate(63.623047 0)"/>
       <use xlink:href="#DejaVuSans-30" transform="translate(95.410156 0)"/>
      </g>
     </g>
    </g>
    <g id="text_7">
     <!-- False positive rate -->
     <g transform="translate(163.105469 306.734844) scale(0.1 -0.1)">
      <defs>
       <path id="DejaVuSans-46" d="M 628 4666 
L 3309 4666 
L 3309 4134 
L 1259 4134 
L 1259 2759 
L 3109 2759 
L 3109 2228 
L 1259 2228 
L 1259 0 
L 628 0 
L 628 4666 
z
" transform="scale(0.015625)"/>
       <path id="DejaVuSans-61" d="M 2194 1759 
Q 1497 1759 1228 1600 
Q 959 1441 959 1056 
Q 959 750 1161 570 
Q 1363 391 1709 391 
Q 2188 391 2477 730 
Q 2766 1069 2766 1631 
L 2766 1759 
L 2194 1759 
z
M 3341 1997 
L 3341 0 
L 2766 0 
L 2766 531 
Q 2569 213 2275 61 
Q 1981 -91 1556 -91 
Q 1019 -91 701 211 
Q 384 513 384 1019 
Q 384 1609 779 1909 
Q 1175 2209 1959 2209 
L 2766 2209 
L 2766 2266 
Q 2766 2663 2505 2880 
Q 2244 3097 1772 3097 
Q 1472 3097 1187 3025 
Q 903 2953 641 2809 
L 641 3341 
Q 956 3463 1253 3523 
Q 1550 3584 1831 3584 
Q 2591 3584 2966 3190 
Q 3341 2797 3341 1997 
z
" transform="scale(0.015625)"/>
       <path id="DejaVuSans-6c" d="M 603 4863 
L 1178 4863 
L 1178 0 
L 603 0 
L 603 4863 
z
" transform="scale(0.015625)"/>
       <path id="DejaVuSans-73" d="M 2834 3397 
L 2834 2853 
Q 2591 2978 2328 3040 
Q 2066 3103 1784 3103 
Q 1356 3103 1142 2972 
Q 928 2841 928 2578 
Q 928 2378 1081 2264 
Q 1234 2150 1697 2047 
L 1894 2003 
Q 2506 1872 2764 1633 
Q 3022 1394 3022 966 
Q 3022 478 2636 193 
Q 2250 -91 1575 -91 
Q 1294 -91 989 -36 
Q 684 19 347 128 
L 347 722 
Q 666 556 975 473 
Q 1284 391 1588 391 
Q 1994 391 2212 530 
Q 2431 669 2431 922 
Q 2431 1156 2273 1281 
Q 2116 1406 1581 1522 
L 1381 1569 
Q 847 1681 609 1914 
Q 372 2147 372 2553 
Q 372 3047 722 3315 
Q 1072 3584 1716 3584 
Q 2034 3584 2315 3537 
Q 2597 3491 2834 3397 
z
" transform="scale(0.015625)"/>
       <path id="DejaVuSans-65" d="M 3597 1894 
L 3597 1613 
L 953 1613 
Q 991 1019 1311 708 
Q 1631 397 2203 397 
Q 2534 397 2845 478 
Q 3156 559 3463 722 
L 3463 178 
Q 3153 47 2828 -22 
Q 2503 -91 2169 -91 
Q 1331 -91 842 396 
Q 353 884 353 1716 
Q 353 2575 817 3079 
Q 1281 3584 2069 3584 
Q 2775 3584 3186 3129 
Q 3597 2675 3597 1894 
z
M 3022 2063 
Q 3016 2534 2758 2815 
Q 2500 3097 2075 3097 
Q 1594 3097 1305 2825 
Q 1016 2553 972 2059 
L 3022 2063 
z
" transform="scale(0.015625)"/>
       <path id="DejaVuSans-20" transform="scale(0.015625)"/>
       <path id="DejaVuSans-70" d="M 1159 525 
L 1159 -1331 
L 581 -1331 
L 581 3500 
L 1159 3500 
L 1159 2969 
Q 1341 3281 1617 3432 
Q 1894 3584 2278 3584 
Q 2916 3584 3314 3078 
Q 3713 2572 3713 1747 
Q 3713 922 3314 415 
Q 2916 -91 2278 -91 
Q 1894 -91 1617 61 
Q 1341 213 1159 525 
z
M 3116 1747 
Q 3116 2381 2855 2742 
Q 2594 3103 2138 3103 
Q 1681 3103 1420 2742 
Q 1159 2381 1159 1747 
Q 1159 1113 1420 752 
Q 1681 391 2138 391 
Q 2594 391 2855 752 
Q 3116 1113 3116 1747 
z
" transform="scale(0.015625)"/>
       <path id="DejaVuSans-6f" d="M 1959 3097 
Q 1497 3097 1228 2736 
Q 959 2375 959 1747 
Q 959 1119 1226 758 
Q 1494 397 1959 397 
Q 2419 397 2687 759 
Q 2956 1122 2956 1747 
Q 2956 2369 2687 2733 
Q 2419 3097 1959 3097 
z
M 1959 3584 
Q 2709 3584 3137 3096 
Q 3566 2609 3566 1747 
Q 3566 888 3137 398 
Q 2709 -91 1959 -91 
Q 1206 -91 779 398 
Q 353 888 353 1747 
Q 353 2609 779 3096 
Q 1206 3584 1959 3584 
z
" transform="scale(0.015625)"/>
       <path id="DejaVuSans-69" d="M 603 3500 
L 1178 3500 
L 1178 0 
L 603 0 
L 603 3500 
z
M 603 4863 
L 1178 4863 
L 1178 4134 
L 603 4134 
L 603 4863 
z
" transform="scale(0.015625)"/>
       <path id="DejaVuSans-74" d="M 1172 4494 
L 1172 3500 
L 2356 3500 
L 2356 3053 
L 1172 3053 
L 1172 1153 
Q 1172 725 1289 603 
Q 1406 481 1766 481 
L 2356 481 
L 2356 0 
L 1766 0 
Q 1100 0 847 248 
Q 594 497 594 1153 
L 594 3053 
L 172 3053 
L 172 3500 
L 594 3500 
L 594 4494 
L 1172 4494 
z
" transform="scale(0.015625)"/>
       <path id="DejaVuSans-76" d="M 191 3500 
L 800 3500 
L 1894 563 
L 2988 3500 
L 3597 3500 
L 2284 0 
L 1503 0 
L 191 3500 
z
" transform="scale(0.015625)"/>
       <path id="DejaVuSans-72" d="M 2631 2963 
Q 2534 3019 2420 3045 
Q 2306 3072 2169 3072 
Q 1681 3072 1420 2755 
Q 1159 2438 1159 1844 
L 1159 0 
L 581 0 
L 581 3500 
L 1159 3500 
L 1159 2956 
Q 1341 3275 1631 3429 
Q 1922 3584 2338 3584 
Q 2397 3584 2469 3576 
Q 2541 3569 2628 3553 
L 2631 2963 
z
" transform="scale(0.015625)"/>
      </defs>
      <use xlink:href="#DejaVuSans-46"/>
      <use xlink:href="#DejaVuSans-61" transform="translate(48.394531 0)"/>
      <use xlink:href="#DejaVuSans-6c" transform="translate(109.673828 0)"/>
      <use xlink:href="#DejaVuSans-73" transform="translate(137.457031 0)"/>
      <use xlink:href="#DejaVuSans-65" transform="translate(189.556641 0)"/>
      <use xlink:href="#DejaVuSans-20" transform="translate(251.080078 0)"/>
      <use xlink:href="#DejaVuSans-70" transform="translate(282.867188 0)"/>
      <use xlink:href="#DejaVuSans-6f" transform="translate(346.34375 0)"/>
      <use xlink:href="#DejaVuSans-73" transform="translate(407.525391 0)"/>
      <use xlink:href="#DejaVuSans-69" transform="translate(459.625 0)"/>
      <use xlink:href="#DejaVuSans-74" transform="translate(487.408203 0)"/>
      <use xlink:href="#DejaVuSans-69" transform="translate(526.617188 0)"/>
      <use xlink:href="#DejaVuSans-76" transform="translate(554.400391 0)"/>
      <use xlink:href="#DejaVuSans-65" transform="translate(613.580078 0)"/>
      <use xlink:href="#DejaVuSans-20" transform="translate(675.103516 0)"/>
      <use xlink:href="#DejaVuSans-72" transform="translate(706.890625 0)"/>
      <use xlink:href="#DejaVuSans-61" transform="translate(748.003906 0)"/>
      <use xlink:href="#DejaVuSans-74" transform="translate(809.283203 0)"/>
      <use xlink:href="#DejaVuSans-65" transform="translate(848.492188 0)"/>
     </g>
    </g>
   </g>
   <g id="matplotlib.axis_2">
    <g id="ytick_1">
     <g id="line2d_13">
      <path d="M 43.78125 278.458281 
L 373.43125 278.458281 
" clip-path="url(#pe72b978c63)" style="fill: none; stroke: #b0b0b0; stroke-opacity: 0.3; stroke-width: 0.8; stroke-linecap: square"/>
     </g>
     <g id="line2d_14">
      <defs>
       <path id="m9b37d3bf3a" d="M 0 0 
L -3.5 0 
" style="stroke: #000000; stroke-width: 0.8"/>
      </defs>
      <g>
       <use xlink:href="#m9b37d3bf3a" x="43.78125" y="278.458281" style="stroke: #000000; stroke-width: 0.8"/>
      </g>
     </g>
     <g id="text_8">
      <!-- 0.0 -->
      <g transform="translate(20.878125 282.2575) scale(0.1 -0.1)">
       <use xlink:href="#DejaVuSans-30"/>
       <use xlink:href="#DejaVuSans-2e" transform="translate(63.623047 0)"/>
       <use xlink:href="#DejaVuSans-30" transform="translate(95.410156 0)"/>
      </g>
     </g>
    </g>
    <g id="ytick_2">
     <g id="line2d_15">
      <path d="M 43.78125 228.085732 
L 373.43125 228.085732 
" clip-path="url(#pe72b978c63)" style="fill: none; stroke: #b0b0b0; stroke-opacity: 0.3; stroke-width: 0.8; stroke-linecap: square"/>
     </g>
     <g id="line2d_16">
      <g>
       <use xlink:href="#m9b37d3bf3a" x="43.78125" y="228.085732" style="stroke: #000000; stroke-width: 0.8"/>
      </g>
     </g>
     <g id="text_9">
      <!-- 0.2 -->
      <g transform="translate(20.878125 231.884951) scale(0.1 -0.1)">
       <use xlink:href="#DejaVuSans-30"/>
       <use xlink:href="#DejaVuSans-2e" transform="translate(63.623047 0)"/>
       <use xlink:href="#DejaVuSans-32" transform="translate(95.410156 0)"/>
      </g>
     </g>
    </g>
    <g id="ytick_3">
     <g id="line2d_17">
      <path d="M 43.78125 177.713183 
L 373.43125 177.713183 
" clip-path="url(#pe72b978c63)" style="fill: none; stroke: #b0b0b0; stroke-opacity: 0.3; stroke-width: 0.8; stroke-linecap: square"/>
     </g>
     <g id="line2d_18">
      <g>
       <use xlink:href="#m9b37d3bf3a" x="43.78125" y="177.713183" style="stroke: #000000; stroke-width: 0.8"/>
      </g>
     </g>
     <g id="text_10">
      <!-- 0.4 -->
      <g transform="translate(20.878125 181.512402) scale(0.1 -0.1)">
       <use xlink:href="#DejaVuSans-30"/>
       <use xlink:href="#DejaVuSans-2e" transform="translate(63.623047 0)"/>
       <use xlink:href="#DejaVuSans-34" transform="translate(95.410156 0)"/>
      </g>
     </g>
    </g>
    <g id="ytick_4">
     <g id="line2d_19">
      <path d="M 43.78125 127.340634 
L 373.43125 127.340634 
" clip-path="url(#pe72b978c63)" style="fill: none; stroke: #b0b0b0; stroke-opacity: 0.3; stroke-width: 0.8; stroke-linecap: square"/>
     </g>
     <g id="line2d_20">
      <g>
       <use xlink:href="#m9b37d3bf3a" x="43.78125" y="127.340634" style="stroke: #000000; stroke-width: 0.8"/>
      </g>
     </g>
     <g id="text_11">
      <!-- 0.6 -->
      <g transform="translate(20.878125 131.139853) scale(0.1 -0.1)">
       <use xlink:href="#DejaVuSans-30"/>
       <use xlink:href="#DejaVuSans-2e" transform="translate(63.623047 0)"/>
       <use xlink:href="#DejaVuSans-36" transform="translate(95.410156 0)"/>
      </g>
     </g>
    </g>
    <g id="ytick_5">
     <g id="line2d_21">
      <path d="M 43.78125 76.968085 
L 373.43125 76.968085 
" clip-path="url(#pe72b978c63)" style="fill: none; stroke: #b0b0b0; stroke-opacity: 0.3; stroke-width: 0.8; stroke-linecap: square"/>
     </g>
     <g id="line2d_22">
      <g>
       <use xlink:href="#m9b37d3bf3a" x="43.78125" y="76.968085" style="stroke: #000000; stroke-width: 0.8"/>
      </g>
     </g>
     <g id="text_12">
      <!-- 0.8 -->
      <g transform="translate(20.878125 80.767304) scale(0.1 -0.1)">
       <use xlink:href="#DejaVuSans-30"/>
       <use xlink:href="#DejaVuSans-2e" transform="translate(63.623047 0)"/>
       <use xlink:href="#DejaVuSans-38" transform="translate(95.410156 0)"/>
      </g>
     </g>
    </g>
    <g id="ytick_6">
     <g id="line2d_23">
      <path d="M 43.78125 26.595536 
L 373.43125 26.595536 
" clip-path="url(#pe72b978c63)" style="fill: none; stroke: #b0b0b0; stroke-opacity: 0.3; stroke-width: 0.8; stroke-linecap: square"/>
     </g>
     <g id="line2d_24">
      <g>
       <use xlink:href="#m9b37d3bf3a" x="43.78125" y="26.595536" style="stroke: #000000; stroke-width: 0.8"/>
      </g>
     </g>
     <g id="text_13">
      <!-- 1.0 -->
      <g transform="translate(20.878125 30.394755) scale(0.1 -0.1)">
       <use xlink:href="#DejaVuSans-31"/>
       <use xlink:href="#DejaVuSans-2e" transform="translate(63.623047 0)"/>
       <use xlink:href="#DejaVuSans-30" transform="translate(95.410156 0)"/>
      </g>
     </g>
    </g>
    <g id="text_14">
     <!-- True positive rate -->
     <g transform="translate(14.798438 193.572344) rotate(-90) scale(0.1 -0.1)">
      <defs>
       <path id="DejaVuSans-54" d="M -19 4666 
L 3928 4666 
L 3928 4134 
L 2272 4134 
L 2272 0 
L 1638 0 
L 1638 4134 
L -19 4134 
L -19 4666 
z
" transform="scale(0.015625)"/>
       <path id="DejaVuSans-75" d="M 544 1381 
L 544 3500 
L 1119 3500 
L 1119 1403 
Q 1119 906 1312 657 
Q 1506 409 1894 409 
Q 2359 409 2629 706 
Q 2900 1003 2900 1516 
L 2900 3500 
L 3475 3500 
L 3475 0 
L 2900 0 
L 2900 538 
Q 2691 219 2414 64 
Q 2138 -91 1772 -91 
Q 1169 -91 856 284 
Q 544 659 544 1381 
z
M 1991 3584 
L 1991 3584 
z
" transform="scale(0.015625)"/>
      </defs>
      <use xlink:href="#DejaVuSans-54"/>
      <use xlink:href="#DejaVuSans-72" transform="translate(46.333984 0)"/>
      <use xlink:href="#DejaVuSans-75" transform="translate(87.447266 0)"/>
      <use xlink:href="#DejaVuSans-65" transform="translate(150.826172 0)"/>
      <use xlink:href="#DejaVuSans-20" transform="translate(212.349609 0)"/>
      <use xlink:href="#DejaVuSans-70" transform="translate(244.136719 0)"/>
      <use xlink:href="#DejaVuSans-6f" transform="translate(307.613281 0)"/>
      <use xlink:href="#DejaVuSans-73" transform="translate(368.794922 0)"/>
      <use xlink:href="#DejaVuSans-69" transform="translate(420.894531 0)"/>
      <use xlink:href="#DejaVuSans-74" transform="translate(448.677734 0)"/>
      <use xlink:href="#DejaVuSans-69" transform="translate(487.886719 0)"/>
      <use xlink:href="#DejaVuSans-76" transform="translate(515.669922 0)"/>
      <use xlink:href="#DejaVuSans-65" transform="translate(574.849609 0)"/>
      <use xlink:href="#DejaVuSans-20" transform="translate(636.373047 0)"/>
      <use xlink:href="#DejaVuSans-72" transform="translate(668.160156 0)"/>
      <use xlink:href="#DejaVuSans-61" transform="translate(709.273438 0)"/>
      <use xlink:href="#DejaVuSans-74" transform="translate(770.552734 0)"/>
      <use xlink:href="#DejaVuSans-65" transform="translate(809.761719 0)"/>
     </g>
    </g>
   </g>
   <g id="line2d_25">
    <path d="M 43.78125 278.458281 
L 43.78125 276.741035 
L 44.910188 276.741035 
L 44.910188 265.865144 
L 46.039127 265.865144 
L 46.039127 264.147898 
L 47.168065 264.147898 
L 47.168065 263.575483 
L 48.297003 263.575483 
L 48.297003 262.430652 
L 49.425942 262.430652 
L 49.425942 259.568575 
L 50.55488 259.568575 
L 50.55488 257.851329 
L 51.683818 257.851329 
L 51.683818 257.278914 
L 53.941695 257.278914 
L 53.941695 256.134083 
L 55.070634 256.134083 
L 55.070634 255.561668 
L 56.199572 255.561668 
L 56.199572 254.416837 
L 59.586387 254.416837 
L 59.586387 252.699591 
L 61.844264 252.699591 
L 61.844264 250.982345 
L 64.10214 250.982345 
L 64.10214 249.837515 
L 65.231079 249.837515 
L 65.231079 248.120269 
L 66.360017 248.120269 
L 66.360017 246.975438 
L 67.488955 246.975438 
L 67.488955 245.258192 
L 68.617894 245.258192 
L 68.617894 243.540946 
L 69.746832 243.540946 
L 69.746832 242.396115 
L 70.875771 242.396115 
L 70.875771 238.389208 
L 72.004709 238.389208 
L 72.004709 228.085732 
L 73.133647 228.085732 
L 73.133647 224.65124 
L 74.262586 224.65124 
L 74.262586 222.933994 
L 76.520462 222.933994 
L 76.520462 221.789164 
L 78.778339 221.789164 
L 78.778339 220.644333 
L 79.907277 220.644333 
L 79.907277 219.499502 
L 81.036216 219.499502 
L 81.036216 218.354672 
L 82.165154 218.354672 
L 82.165154 209.196026 
L 83.294092 209.196026 
L 83.294092 208.623611 
L 88.938784 208.623611 
L 88.938784 208.051196 
L 90.067723 208.051196 
L 90.067723 207.47878 
L 91.196661 207.47878 
L 91.196661 205.189119 
L 93.454538 205.189119 
L 93.454538 204.616704 
L 97.970291 204.616704 
L 97.970291 203.471873 
L 99.099229 203.471873 
L 99.099229 202.327042 
L 100.228168 202.327042 
L 100.228168 201.754627 
L 101.357106 201.754627 
L 101.357106 200.037381 
L 102.486045 200.037381 
L 102.486045 198.320135 
L 104.743921 198.320135 
L 104.743921 197.74772 
L 105.87286 197.74772 
L 105.87286 195.458058 
L 107.001798 195.458058 
L 107.001798 189.733905 
L 108.130736 189.733905 
L 108.130736 183.437337 
L 109.259675 183.437337 
L 109.259675 182.864921 
L 111.517551 182.864921 
L 111.517551 178.858014 
L 112.64649 178.858014 
L 112.64649 178.285599 
L 116.033305 178.285599 
L 116.033305 177.713183 
L 117.162243 177.713183 
L 117.162243 176.568353 
L 125.064812 176.568353 
L 125.064812 175.423522 
L 126.19375 175.423522 
L 126.19375 172.561445 
L 127.322688 172.561445 
L 127.322688 170.271784 
L 128.451627 170.271784 
L 128.451627 169.126953 
L 129.580565 169.126953 
L 129.580565 167.982123 
L 130.709503 167.982123 
L 130.709503 167.409707 
L 132.96738 167.409707 
L 132.96738 166.837292 
L 135.225257 166.837292 
L 135.225257 166.264877 
L 136.354195 166.264877 
L 136.354195 162.830385 
L 137.483134 162.830385 
L 137.483134 162.257969 
L 143.127825 162.257969 
L 143.127825 160.540723 
L 144.256764 160.540723 
L 144.256764 159.968308 
L 146.51464 159.968308 
L 146.51464 158.823477 
L 148.772517 158.823477 
L 148.772517 154.244155 
L 149.901455 154.244155 
L 149.901455 153.671739 
L 152.159332 153.671739 
L 152.159332 153.099324 
L 153.288271 153.099324 
L 153.288271 151.954493 
L 155.546147 151.954493 
L 155.546147 150.809663 
L 157.804024 150.809663 
L 157.804024 143.940679 
L 160.061901 143.940679 
L 160.061901 142.795848 
L 162.319777 142.795848 
L 162.319777 141.651017 
L 163.448716 141.651017 
L 163.448716 141.078602 
L 164.577654 141.078602 
L 164.577654 139.361356 
L 166.835531 139.361356 
L 166.835531 137.64411 
L 167.964469 137.64411 
L 167.964469 137.071695 
L 169.093408 137.071695 
L 169.093408 135.926864 
L 170.222346 135.926864 
L 170.222346 133.064787 
L 175.867038 133.064787 
L 175.867038 131.347541 
L 176.995976 131.347541 
L 176.995976 130.202711 
L 178.124914 130.202711 
L 178.124914 129.630296 
L 179.253853 129.630296 
L 179.253853 127.340634 
L 180.382791 127.340634 
L 180.382791 123.906142 
L 181.511729 123.906142 
L 181.511729 118.181989 
L 182.640668 118.181989 
L 182.640668 115.319912 
L 183.769606 115.319912 
L 183.769606 114.175082 
L 184.898545 114.175082 
L 184.898545 113.030251 
L 187.156421 113.030251 
L 187.156421 111.88542 
L 188.28536 111.88542 
L 188.28536 110.168174 
L 189.414298 110.168174 
L 189.414298 109.595759 
L 191.672175 109.595759 
L 191.672175 109.023344 
L 192.801113 109.023344 
L 192.801113 108.450928 
L 193.930051 108.450928 
L 193.930051 106.161267 
L 195.05899 106.161267 
L 195.05899 101.581944 
L 196.187928 101.581944 
L 196.187928 98.147452 
L 197.316866 98.147452 
L 197.316866 95.857791 
L 198.445805 95.857791 
L 198.445805 94.71296 
L 200.703682 94.71296 
L 200.703682 94.140545 
L 201.83262 94.140545 
L 201.83262 93.56813 
L 202.961558 93.56813 
L 202.961558 91.850884 
L 206.348373 91.850884 
L 206.348373 87.271561 
L 207.477312 87.271561 
L 207.477312 86.699146 
L 208.60625 86.699146 
L 208.60625 86.12673 
L 211.993065 86.12673 
L 211.993065 83.837069 
L 216.508818 83.837069 
L 216.508818 83.264654 
L 219.895634 83.264654 
L 219.895634 82.692238 
L 224.411387 82.692238 
L 224.411387 81.547408 
L 225.540325 81.547408 
L 225.540325 80.402577 
L 226.669264 80.402577 
L 226.669264 78.112916 
L 228.92714 78.112916 
L 228.92714 76.39567 
L 230.056079 76.39567 
L 230.056079 75.250839 
L 232.313955 75.250839 
L 232.313955 74.678424 
L 233.442894 74.678424 
L 233.442894 73.533593 
L 234.571832 73.533593 
L 234.571832 72.961178 
L 236.829709 72.961178 
L 236.829709 71.243932 
L 237.958647 71.243932 
L 237.958647 70.671517 
L 242.474401 70.671517 
L 242.474401 66.664609 
L 243.603339 66.664609 
L 243.603339 65.519779 
L 245.861216 65.519779 
L 245.861216 63.802533 
L 246.990154 63.802533 
L 246.990154 63.230117 
L 256.021661 63.230117 
L 256.021661 62.657702 
L 257.150599 62.657702 
L 257.150599 61.512871 
L 258.279538 61.512871 
L 258.279538 59.795625 
L 259.408476 59.795625 
L 259.408476 58.078379 
L 260.537414 58.078379 
L 260.537414 57.505964 
L 262.795291 57.505964 
L 262.795291 56.361133 
L 265.053168 56.361133 
L 265.053168 55.788718 
L 268.439983 55.788718 
L 268.439983 54.071472 
L 270.69786 54.071472 
L 270.69786 53.499057 
L 274.084675 53.499057 
L 274.084675 52.354226 
L 280.858305 52.354226 
L 280.858305 51.781811 
L 288.760873 51.781811 
L 288.760873 51.209395 
L 292.147688 51.209395 
L 292.147688 50.064565 
L 300.050257 50.064565 
L 300.050257 49.492149 
L 305.694949 49.492149 
L 305.694949 47.774903 
L 306.823887 47.774903 
L 306.823887 47.202488 
L 311.33964 47.202488 
L 311.33964 46.630073 
L 313.597517 46.630073 
L 313.597517 46.057657 
L 316.984332 46.057657 
L 316.984332 45.485242 
L 318.113271 45.485242 
L 318.113271 44.912827 
L 319.242209 44.912827 
L 319.242209 44.340411 
L 320.371147 44.340411 
L 320.371147 43.767996 
L 322.629024 43.767996 
L 322.629024 42.05075 
L 326.015839 42.05075 
L 326.015839 41.478335 
L 331.660531 41.478335 
L 331.660531 40.333504 
L 333.918408 40.333504 
L 333.918408 39.188673 
L 338.434161 39.188673 
L 338.434161 38.043843 
L 339.563099 38.043843 
L 339.563099 36.899012 
L 340.692038 36.899012 
L 340.692038 35.754181 
L 345.207791 35.754181 
L 345.207791 34.609351 
L 351.981421 34.609351 
L 351.981421 34.036935 
L 353.11036 34.036935 
L 353.11036 32.319689 
L 355.368236 32.319689 
L 355.368236 31.747274 
L 357.626113 31.747274 
L 357.626113 30.030028 
L 359.88399 30.030028 
L 359.88399 28.885197 
L 365.528682 28.885197 
L 365.528682 26.595536 
L 373.43125 26.595536 
L 373.43125 26.595536 
" clip-path="url(#pe72b978c63)" style="fill: none; stroke: #1a9641; stroke-width: 2; stroke-linecap: square"/>
   </g>
   <g id="line2d_26">
    <path d="M 43.78125 278.458281 
L 43.78125 277.313451 
L 44.910188 277.313451 
L 44.910188 271.589297 
L 46.039127 271.589297 
L 46.039127 271.016882 
L 47.168065 271.016882 
L 47.168065 267.58239 
L 48.297003 267.58239 
L 48.297003 266.437559 
L 49.425942 266.437559 
L 49.425942 259.568575 
L 50.55488 259.568575 
L 50.55488 258.423745 
L 51.683818 258.423745 
L 51.683818 251.554761 
L 52.812757 251.554761 
L 52.812757 250.982345 
L 53.941695 250.982345 
L 53.941695 248.692684 
L 55.070634 248.692684 
L 55.070634 246.975438 
L 57.32851 246.975438 
L 57.32851 246.403023 
L 58.457449 246.403023 
L 58.457449 244.685777 
L 59.586387 244.685777 
L 59.586387 244.113361 
L 61.844264 244.113361 
L 61.844264 242.968531 
L 62.973202 242.968531 
L 62.973202 242.396115 
L 65.231079 242.396115 
L 65.231079 241.251285 
L 67.488955 241.251285 
L 67.488955 240.678869 
L 68.617894 240.678869 
L 68.617894 240.106454 
L 72.004709 240.106454 
L 72.004709 239.534039 
L 74.262586 239.534039 
L 74.262586 237.244378 
L 75.391524 237.244378 
L 75.391524 234.954716 
L 77.649401 234.954716 
L 77.649401 232.665055 
L 78.778339 232.665055 
L 78.778339 231.520224 
L 81.036216 231.520224 
L 81.036216 230.947809 
L 83.294092 230.947809 
L 83.294092 229.802978 
L 86.680908 229.802978 
L 86.680908 229.230563 
L 87.809846 229.230563 
L 87.809846 228.658148 
L 90.067723 228.658148 
L 90.067723 223.50641 
L 92.325599 223.50641 
L 92.325599 217.782256 
L 93.454538 217.782256 
L 93.454538 216.06501 
L 95.712414 216.06501 
L 95.712414 215.492595 
L 96.841353 215.492595 
L 96.841353 214.92018 
L 97.970291 214.92018 
L 97.970291 211.485688 
L 99.099229 211.485688 
L 99.099229 208.051196 
L 101.357106 208.051196 
L 101.357106 202.899458 
L 102.486045 202.899458 
L 102.486045 201.754627 
L 103.614983 201.754627 
L 103.614983 201.182212 
L 104.743921 201.182212 
L 104.743921 200.609796 
L 107.001798 200.609796 
L 107.001798 200.037381 
L 108.130736 200.037381 
L 108.130736 198.89255 
L 111.517551 198.89255 
L 111.517551 197.74772 
L 114.904366 197.74772 
L 114.904366 194.885643 
L 116.033305 194.885643 
L 116.033305 190.30632 
L 118.291182 190.30632 
L 118.291182 189.733905 
L 119.42012 189.733905 
L 119.42012 189.16149 
L 120.549058 189.16149 
L 120.549058 188.589074 
L 121.677997 188.589074 
L 121.677997 186.299413 
L 122.806935 186.299413 
L 122.806935 183.437337 
L 123.935873 183.437337 
L 123.935873 181.720091 
L 125.064812 181.720091 
L 125.064812 181.147675 
L 126.19375 181.147675 
L 126.19375 180.57526 
L 128.451627 180.57526 
L 128.451627 178.858014 
L 130.709503 178.858014 
L 130.709503 178.285599 
L 131.838442 178.285599 
L 131.838442 177.713183 
L 132.96738 177.713183 
L 132.96738 177.140768 
L 135.225257 177.140768 
L 135.225257 174.278691 
L 136.354195 174.278691 
L 136.354195 171.98903 
L 137.483134 171.98903 
L 137.483134 171.416615 
L 138.612072 171.416615 
L 138.612072 169.126953 
L 139.74101 169.126953 
L 139.74101 165.120046 
L 140.869949 165.120046 
L 140.869949 163.975215 
L 141.998887 163.975215 
L 141.998887 163.4028 
L 144.256764 163.4028 
L 144.256764 162.257969 
L 145.385702 162.257969 
L 145.385702 157.678647 
L 146.51464 157.678647 
L 146.51464 155.961401 
L 148.772517 155.961401 
L 148.772517 155.388985 
L 149.901455 155.388985 
L 149.901455 153.671739 
L 152.159332 153.671739 
L 152.159332 151.954493 
L 153.288271 151.954493 
L 153.288271 151.382078 
L 154.417209 151.382078 
L 154.417209 149.092417 
L 155.546147 149.092417 
L 155.546147 144.513094 
L 158.932962 144.513094 
L 158.932962 143.940679 
L 160.061901 143.940679 
L 160.061901 141.078602 
L 161.190839 141.078602 
L 161.190839 140.506187 
L 163.448716 140.506187 
L 163.448716 139.361356 
L 164.577654 139.361356 
L 164.577654 138.216525 
L 165.706592 138.216525 
L 165.706592 137.071695 
L 166.835531 137.071695 
L 166.835531 135.354449 
L 167.964469 135.354449 
L 167.964469 134.782033 
L 170.222346 134.782033 
L 170.222346 134.209618 
L 172.480223 134.209618 
L 172.480223 133.637203 
L 173.609161 133.637203 
L 173.609161 130.775126 
L 174.738099 130.775126 
L 174.738099 130.202711 
L 175.867038 130.202711 
L 175.867038 129.630296 
L 181.511729 129.630296 
L 181.511729 128.485465 
L 184.898545 128.485465 
L 184.898545 127.91305 
L 188.28536 127.91305 
L 188.28536 125.050973 
L 189.414298 125.050973 
L 189.414298 123.906142 
L 192.801113 123.906142 
L 192.801113 123.333727 
L 193.930051 123.333727 
L 193.930051 119.899235 
L 198.445805 119.899235 
L 198.445805 117.609574 
L 199.574743 117.609574 
L 199.574743 115.319912 
L 201.83262 115.319912 
L 201.83262 114.747497 
L 202.961558 114.747497 
L 202.961558 111.88542 
L 207.477312 111.88542 
L 207.477312 111.313005 
L 210.864127 111.313005 
L 210.864127 109.595759 
L 213.122003 109.595759 
L 213.122003 108.450928 
L 214.250942 108.450928 
L 214.250942 107.878513 
L 216.508818 107.878513 
L 216.508818 105.588852 
L 217.637757 105.588852 
L 217.637757 103.29919 
L 218.766695 103.29919 
L 218.766695 101.581944 
L 222.15351 101.581944 
L 222.15351 101.009529 
L 225.540325 101.009529 
L 225.540325 99.864698 
L 226.669264 99.864698 
L 226.669264 99.292283 
L 227.798202 99.292283 
L 227.798202 98.719868 
L 230.056079 98.719868 
L 230.056079 96.430206 
L 233.442894 96.430206 
L 233.442894 95.857791 
L 234.571832 95.857791 
L 234.571832 93.56813 
L 235.700771 93.56813 
L 235.700771 91.850884 
L 236.829709 91.850884 
L 236.829709 91.278468 
L 239.087586 91.278468 
L 239.087586 89.561222 
L 241.345462 89.561222 
L 241.345462 88.988807 
L 242.474401 88.988807 
L 242.474401 88.416392 
L 243.603339 88.416392 
L 243.603339 84.9819 
L 246.990154 84.9819 
L 246.990154 84.409484 
L 248.119092 84.409484 
L 248.119092 80.974992 
L 251.505908 80.974992 
L 251.505908 79.257746 
L 252.634846 79.257746 
L 252.634846 78.112916 
L 256.021661 78.112916 
L 256.021661 74.678424 
L 257.150599 74.678424 
L 257.150599 73.533593 
L 258.279538 73.533593 
L 258.279538 72.388763 
L 261.666353 72.388763 
L 261.666353 70.671517 
L 263.924229 70.671517 
L 263.924229 70.099101 
L 268.439983 70.099101 
L 268.439983 68.954271 
L 269.568921 68.954271 
L 269.568921 68.381855 
L 270.69786 68.381855 
L 270.69786 67.80944 
L 271.826798 67.80944 
L 271.826798 67.237025 
L 272.955736 67.237025 
L 272.955736 66.664609 
L 274.084675 66.664609 
L 274.084675 65.519779 
L 275.213613 65.519779 
L 275.213613 64.947363 
L 277.47149 64.947363 
L 277.47149 63.802533 
L 278.600428 63.802533 
L 278.600428 62.085287 
L 279.729366 62.085287 
L 279.729366 61.512871 
L 280.858305 61.512871 
L 280.858305 59.795625 
L 284.24512 59.795625 
L 284.24512 58.650795 
L 285.374058 58.650795 
L 285.374058 56.933549 
L 287.631935 56.933549 
L 287.631935 56.361133 
L 288.760873 56.361133 
L 288.760873 55.788718 
L 293.276627 55.788718 
L 293.276627 53.499057 
L 295.534503 53.499057 
L 295.534503 52.354226 
L 296.663442 52.354226 
L 296.663442 51.781811 
L 298.921318 51.781811 
L 298.921318 51.209395 
L 300.050257 51.209395 
L 300.050257 50.63698 
L 303.437072 50.63698 
L 303.437072 49.492149 
L 304.56601 49.492149 
L 304.56601 48.919734 
L 306.823887 48.919734 
L 306.823887 48.347319 
L 307.952825 48.347319 
L 307.952825 47.202488 
L 309.081764 47.202488 
L 309.081764 46.057657 
L 310.210702 46.057657 
L 310.210702 44.912827 
L 311.33964 44.912827 
L 311.33964 44.340411 
L 313.597517 44.340411 
L 313.597517 40.905919 
L 316.984332 40.905919 
L 316.984332 39.761089 
L 321.500086 39.761089 
L 321.500086 39.188673 
L 326.015839 39.188673 
L 326.015839 38.043843 
L 328.273716 38.043843 
L 328.273716 37.471427 
L 329.402654 37.471427 
L 329.402654 36.899012 
L 331.660531 36.899012 
L 331.660531 34.609351 
L 332.789469 34.609351 
L 332.789469 34.036935 
L 337.305223 34.036935 
L 337.305223 33.46452 
L 339.563099 33.46452 
L 339.563099 32.892105 
L 340.692038 32.892105 
L 340.692038 32.319689 
L 341.820976 32.319689 
L 341.820976 31.174859 
L 347.465668 31.174859 
L 347.465668 30.602443 
L 348.594606 30.602443 
L 348.594606 29.457613 
L 353.11036 29.457613 
L 353.11036 28.885197 
L 359.88399 28.885197 
L 359.88399 28.312782 
L 364.399743 28.312782 
L 364.399743 27.740367 
L 365.528682 27.740367 
L 365.528682 26.595536 
L 373.43125 26.595536 
L 373.43125 26.595536 
" clip-path="url(#pe72b978c63)" style="fill: none; stroke: #fdae61; stroke-width: 2; stroke-linecap: square"/>
   </g>
   <g id="line2d_27">
    <path d="M 43.78125 278.458281 
L 43.78125 276.741035 
L 44.910188 276.741035 
L 44.910188 276.16862 
L 46.039127 276.16862 
L 46.039127 273.306543 
L 47.168065 273.306543 
L 47.168065 271.589297 
L 48.297003 271.589297 
L 48.297003 269.872051 
L 49.425942 269.872051 
L 49.425942 268.154805 
L 51.683818 268.154805 
L 51.683818 265.865144 
L 52.812757 265.865144 
L 52.812757 262.430652 
L 53.941695 262.430652 
L 53.941695 257.278914 
L 55.070634 257.278914 
L 55.070634 256.706499 
L 56.199572 256.706499 
L 56.199572 256.134083 
L 58.457449 256.134083 
L 58.457449 255.561668 
L 59.586387 255.561668 
L 59.586387 254.989253 
L 60.715325 254.989253 
L 60.715325 253.272007 
L 61.844264 253.272007 
L 61.844264 250.982345 
L 65.231079 250.982345 
L 65.231079 249.837515 
L 68.617894 249.837515 
L 68.617894 248.120269 
L 69.746832 248.120269 
L 69.746832 246.403023 
L 70.875771 246.403023 
L 70.875771 245.258192 
L 72.004709 245.258192 
L 72.004709 244.685777 
L 73.133647 244.685777 
L 73.133647 240.678869 
L 75.391524 240.678869 
L 75.391524 239.534039 
L 76.520462 239.534039 
L 76.520462 231.520224 
L 77.649401 231.520224 
L 77.649401 230.375394 
L 82.165154 230.375394 
L 82.165154 229.802978 
L 85.551969 229.802978 
L 85.551969 228.658148 
L 87.809846 228.658148 
L 87.809846 226.940902 
L 88.938784 226.940902 
L 88.938784 226.368486 
L 92.325599 226.368486 
L 92.325599 225.796071 
L 93.454538 225.796071 
L 93.454538 223.50641 
L 94.583476 223.50641 
L 94.583476 221.216748 
L 95.712414 221.216748 
L 95.712414 218.927087 
L 96.841353 218.927087 
L 96.841353 217.209841 
L 97.970291 217.209841 
L 97.970291 215.492595 
L 100.228168 215.492595 
L 100.228168 214.92018 
L 102.486045 214.92018 
L 102.486045 213.775349 
L 103.614983 213.775349 
L 103.614983 213.202934 
L 105.87286 213.202934 
L 105.87286 212.630518 
L 107.001798 212.630518 
L 107.001798 212.058103 
L 110.388613 212.058103 
L 110.388613 209.196026 
L 112.64649 209.196026 
L 112.64649 208.051196 
L 113.775428 208.051196 
L 113.775428 207.47878 
L 114.904366 207.47878 
L 114.904366 206.33395 
L 118.291182 206.33395 
L 118.291182 205.761534 
L 119.42012 205.761534 
L 119.42012 205.189119 
L 121.677997 205.189119 
L 121.677997 204.616704 
L 122.806935 204.616704 
L 122.806935 204.044288 
L 123.935873 204.044288 
L 123.935873 201.754627 
L 125.064812 201.754627 
L 125.064812 201.182212 
L 128.451627 201.182212 
L 128.451627 200.609796 
L 129.580565 200.609796 
L 129.580565 200.037381 
L 131.838442 200.037381 
L 131.838442 197.175304 
L 132.96738 197.175304 
L 132.96738 196.030474 
L 134.096318 196.030474 
L 134.096318 193.168397 
L 137.483134 193.168397 
L 137.483134 191.451151 
L 138.612072 191.451151 
L 138.612072 188.589074 
L 139.74101 188.589074 
L 139.74101 187.444244 
L 140.869949 187.444244 
L 140.869949 185.154582 
L 141.998887 185.154582 
L 141.998887 180.57526 
L 144.256764 180.57526 
L 144.256764 180.002845 
L 146.51464 180.002845 
L 146.51464 179.430429 
L 147.643579 179.430429 
L 147.643579 178.858014 
L 149.901455 178.858014 
L 149.901455 178.285599 
L 151.030394 178.285599 
L 151.030394 177.713183 
L 152.159332 177.713183 
L 152.159332 177.140768 
L 155.546147 177.140768 
L 155.546147 176.568353 
L 157.804024 176.568353 
L 157.804024 174.278691 
L 158.932962 174.278691 
L 158.932962 171.98903 
L 160.061901 171.98903 
L 160.061901 170.844199 
L 161.190839 170.844199 
L 161.190839 169.126953 
L 166.835531 169.126953 
L 166.835531 167.982123 
L 167.964469 167.982123 
L 167.964469 166.837292 
L 169.093408 166.837292 
L 169.093408 166.264877 
L 170.222346 166.264877 
L 170.222346 165.692461 
L 171.351284 165.692461 
L 171.351284 164.547631 
L 173.609161 164.547631 
L 173.609161 159.968308 
L 175.867038 159.968308 
L 175.867038 158.251062 
L 176.995976 158.251062 
L 176.995976 157.106231 
L 178.124914 157.106231 
L 178.124914 151.954493 
L 179.253853 151.954493 
L 179.253853 149.664832 
L 180.382791 149.664832 
L 180.382791 148.520001 
L 182.640668 148.520001 
L 182.640668 145.657925 
L 183.769606 145.657925 
L 183.769606 143.940679 
L 184.898545 143.940679 
L 184.898545 141.078602 
L 186.027483 141.078602 
L 186.027483 139.933771 
L 187.156421 139.933771 
L 187.156421 139.361356 
L 190.543236 139.361356 
L 190.543236 137.64411 
L 191.672175 137.64411 
L 191.672175 137.071695 
L 192.801113 137.071695 
L 192.801113 135.926864 
L 195.05899 135.926864 
L 195.05899 134.209618 
L 196.187928 134.209618 
L 196.187928 133.637203 
L 197.316866 133.637203 
L 197.316866 132.492372 
L 198.445805 132.492372 
L 198.445805 129.630296 
L 200.703682 129.630296 
L 200.703682 129.05788 
L 204.090497 129.05788 
L 204.090497 128.485465 
L 205.219435 128.485465 
L 205.219435 127.340634 
L 206.348373 127.340634 
L 206.348373 126.195804 
L 207.477312 126.195804 
L 207.477312 124.478558 
L 209.735188 124.478558 
L 209.735188 122.761312 
L 213.122003 122.761312 
L 213.122003 120.47165 
L 216.508818 120.47165 
L 216.508818 119.32682 
L 219.895634 119.32682 
L 219.895634 117.609574 
L 221.024572 117.609574 
L 221.024572 116.464743 
L 222.15351 116.464743 
L 222.15351 115.892328 
L 223.282449 115.892328 
L 223.282449 115.319912 
L 225.540325 115.319912 
L 225.540325 113.602666 
L 226.669264 113.602666 
L 226.669264 112.457836 
L 227.798202 112.457836 
L 227.798202 111.88542 
L 228.92714 111.88542 
L 228.92714 110.168174 
L 235.700771 110.168174 
L 235.700771 107.878513 
L 236.829709 107.878513 
L 236.829709 106.733682 
L 237.958647 106.733682 
L 237.958647 104.444021 
L 240.216524 104.444021 
L 240.216524 102.726775 
L 243.603339 102.726775 
L 243.603339 102.15436 
L 244.732277 102.15436 
L 244.732277 101.581944 
L 248.119092 101.581944 
L 248.119092 99.292283 
L 250.376969 99.292283 
L 250.376969 96.430206 
L 252.634846 96.430206 
L 252.634846 94.71296 
L 253.763784 94.71296 
L 253.763784 94.140545 
L 254.892723 94.140545 
L 254.892723 93.56813 
L 257.150599 93.56813 
L 257.150599 92.995714 
L 259.408476 92.995714 
L 259.408476 92.423299 
L 260.537414 92.423299 
L 260.537414 91.850884 
L 263.924229 91.850884 
L 263.924229 91.278468 
L 266.182106 91.278468 
L 266.182106 90.133638 
L 267.311045 90.133638 
L 267.311045 88.988807 
L 270.69786 88.988807 
L 270.69786 88.416392 
L 271.826798 88.416392 
L 271.826798 87.271561 
L 272.955736 87.271561 
L 272.955736 86.699146 
L 274.084675 86.699146 
L 274.084675 85.554315 
L 275.213613 85.554315 
L 275.213613 84.9819 
L 277.47149 84.9819 
L 277.47149 83.837069 
L 280.858305 83.837069 
L 280.858305 83.264654 
L 284.24512 83.264654 
L 284.24512 82.692238 
L 285.374058 82.692238 
L 285.374058 80.402577 
L 286.502997 80.402577 
L 286.502997 78.685331 
L 288.760873 78.685331 
L 288.760873 77.540501 
L 289.889812 77.540501 
L 289.889812 76.968085 
L 291.01875 76.968085 
L 291.01875 75.823255 
L 292.147688 75.823255 
L 292.147688 74.106009 
L 294.405565 74.106009 
L 294.405565 73.533593 
L 296.663442 73.533593 
L 296.663442 72.388763 
L 298.921318 72.388763 
L 298.921318 71.243932 
L 300.050257 71.243932 
L 300.050257 67.80944 
L 302.308134 67.80944 
L 302.308134 66.664609 
L 303.437072 66.664609 
L 303.437072 66.092194 
L 304.56601 66.092194 
L 304.56601 64.947363 
L 305.694949 64.947363 
L 305.694949 64.374948 
L 306.823887 64.374948 
L 306.823887 63.802533 
L 310.210702 63.802533 
L 310.210702 63.230117 
L 313.597517 63.230117 
L 313.597517 62.657702 
L 316.984332 62.657702 
L 316.984332 61.512871 
L 318.113271 61.512871 
L 318.113271 60.368041 
L 319.242209 60.368041 
L 319.242209 59.795625 
L 320.371147 59.795625 
L 320.371147 56.933549 
L 322.629024 56.933549 
L 322.629024 56.361133 
L 323.757962 56.361133 
L 323.757962 55.788718 
L 327.144777 55.788718 
L 327.144777 54.643887 
L 330.531592 54.643887 
L 330.531592 50.064565 
L 331.660531 50.064565 
L 331.660531 49.492149 
L 332.789469 49.492149 
L 332.789469 48.347319 
L 335.047346 48.347319 
L 335.047346 47.202488 
L 336.176284 47.202488 
L 336.176284 46.057657 
L 338.434161 46.057657 
L 338.434161 45.485242 
L 340.692038 45.485242 
L 340.692038 42.05075 
L 341.820976 42.05075 
L 341.820976 40.905919 
L 342.949914 40.905919 
L 342.949914 39.761089 
L 346.336729 39.761089 
L 346.336729 38.043843 
L 347.465668 38.043843 
L 347.465668 36.326597 
L 349.723545 36.326597 
L 349.723545 33.46452 
L 351.981421 33.46452 
L 351.981421 32.319689 
L 354.239298 32.319689 
L 354.239298 29.457613 
L 357.626113 29.457613 
L 357.626113 28.885197 
L 359.88399 28.885197 
L 359.88399 28.312782 
L 364.399743 28.312782 
L 364.399743 26.595536 
L 373.43125 26.595536 
L 373.43125 26.595536 
" clip-path="url(#pe72b978c63)" style="fill: none; stroke: #d7191c; stroke-width: 2.4; stroke-linecap: square"/>
   </g>
   <g id="line2d_28">
    <path d="M 43.78125 278.458281 
L 373.43125 26.595536 
" clip-path="url(#pe72b978c63)" style="fill: none; stroke-dasharray: 3.7,1.6; stroke-dashoffset: 0; stroke: #808080"/>
   </g>
   <g id="patch_3">
    <path d="M 43.78125 278.458281 
L 43.78125 21.558281 
" style="fill: none; stroke: #000000; stroke-width: 0.8; stroke-linejoin: miter; stroke-linecap: square"/>
   </g>
   <g id="patch_4">
    <path d="M 373.43125 278.458281 
L 373.43125 21.558281 
" style="fill: none; stroke: #000000; stroke-width: 0.8; stroke-linejoin: miter; stroke-linecap: square"/>
   </g>
   <g id="patch_5">
    <path d="M 43.78125 278.458281 
L 373.43125 278.458281 
" style="fill: none; stroke: #000000; stroke-width: 0.8; stroke-linejoin: miter; stroke-linecap: square"/>
   </g>
   <g id="patch_6">
    <path d="M 43.78125 21.558281 
L 373.43125 21.558281 
" style="fill: none; stroke: #000000; stroke-width: 0.8; stroke-linejoin: miter; stroke-linecap: square"/>
   </g>
   <g id="text_15">
    <!-- ROC — Severe Delay Day Classification -->
    <g transform="translate(88.613437 15.558281) scale(0.11 -0.11)">
     <defs>
      <path id="DejaVuSans-Bold-52" d="M 2297 2597 
Q 2675 2597 2839 2737 
Q 3003 2878 3003 3200 
Q 3003 3519 2839 3656 
Q 2675 3794 2297 3794 
L 1791 3794 
L 1791 2597 
L 2297 2597 
z
M 1791 1766 
L 1791 0 
L 588 0 
L 588 4666 
L 2425 4666 
Q 3347 4666 3776 4356 
Q 4206 4047 4206 3378 
Q 4206 2916 3982 2619 
Q 3759 2322 3309 2181 
Q 3556 2125 3751 1926 
Q 3947 1728 4147 1325 
L 4800 0 
L 3519 0 
L 2950 1159 
Q 2778 1509 2601 1637 
Q 2425 1766 2131 1766 
L 1791 1766 
z
" transform="scale(0.015625)"/>
      <path id="DejaVuSans-Bold-4f" d="M 2719 3878 
Q 2169 3878 1866 3472 
Q 1563 3066 1563 2328 
Q 1563 1594 1866 1187 
Q 2169 781 2719 781 
Q 3272 781 3575 1187 
Q 3878 1594 3878 2328 
Q 3878 3066 3575 3472 
Q 3272 3878 2719 3878 
z
M 2719 4750 
Q 3844 4750 4481 4106 
Q 5119 3463 5119 2328 
Q 5119 1197 4481 553 
Q 3844 -91 2719 -91 
Q 1597 -91 958 553 
Q 319 1197 319 2328 
Q 319 3463 958 4106 
Q 1597 4750 2719 4750 
z
" transform="scale(0.015625)"/>
      <path id="DejaVuSans-Bold-43" d="M 4288 256 
Q 3956 84 3597 -3 
Q 3238 -91 2847 -91 
Q 1681 -91 1000 561 
Q 319 1213 319 2328 
Q 319 3447 1000 4098 
Q 1681 4750 2847 4750 
Q 3238 4750 3597 4662 
Q 3956 4575 4288 4403 
L 4288 3438 
Q 3953 3666 3628 3772 
Q 3303 3878 2944 3878 
Q 2300 3878 1931 3465 
Q 1563 3053 1563 2328 
Q 1563 1606 1931 1193 
Q 2300 781 2944 781 
Q 3303 781 3628 887 
Q 3953 994 4288 1222 
L 4288 256 
z
" transform="scale(0.015625)"/>
      <path id="DejaVuSans-Bold-20" transform="scale(0.015625)"/>
      <path id="DejaVuSans-Bold-2014" d="M 344 2156 
L 6056 2156 
L 6056 1350 
L 344 1350 
L 344 2156 
z
" transform="scale(0.015625)"/>
      <path id="DejaVuSans-Bold-53" d="M 3834 4519 
L 3834 3531 
Q 3450 3703 3084 3790 
Q 2719 3878 2394 3878 
Q 1963 3878 1756 3759 
Q 1550 3641 1550 3391 
Q 1550 3203 1689 3098 
Q 1828 2994 2194 2919 
L 2706 2816 
Q 3484 2659 3812 2340 
Q 4141 2022 4141 1434 
Q 4141 663 3683 286 
Q 3225 -91 2284 -91 
Q 1841 -91 1394 -6 
Q 947 78 500 244 
L 500 1259 
Q 947 1022 1364 901 
Q 1781 781 2169 781 
Q 2563 781 2772 912 
Q 2981 1044 2981 1288 
Q 2981 1506 2839 1625 
Q 2697 1744 2272 1838 
L 1806 1941 
Q 1106 2091 782 2419 
Q 459 2747 459 3303 
Q 459 4000 909 4375 
Q 1359 4750 2203 4750 
Q 2588 4750 2994 4692 
Q 3400 4634 3834 4519 
z
" transform="scale(0.015625)"/>
      <path id="DejaVuSans-Bold-65" d="M 4031 1759 
L 4031 1441 
L 1416 1441 
Q 1456 1047 1700 850 
Q 1944 653 2381 653 
Q 2734 653 3104 758 
Q 3475 863 3866 1075 
L 3866 213 
Q 3469 63 3072 -14 
Q 2675 -91 2278 -91 
Q 1328 -91 801 392 
Q 275 875 275 1747 
Q 275 2603 792 3093 
Q 1309 3584 2216 3584 
Q 3041 3584 3536 3087 
Q 4031 2591 4031 1759 
z
M 2881 2131 
Q 2881 2450 2695 2645 
Q 2509 2841 2209 2841 
Q 1884 2841 1681 2658 
Q 1478 2475 1428 2131 
L 2881 2131 
z
" transform="scale(0.015625)"/>
      <path id="DejaVuSans-Bold-76" d="M 97 3500 
L 1216 3500 
L 2088 1081 
L 2956 3500 
L 4078 3500 
L 2700 0 
L 1472 0 
L 97 3500 
z
" transform="scale(0.015625)"/>
      <path id="DejaVuSans-Bold-72" d="M 3138 2547 
Q 2991 2616 2845 2648 
Q 2700 2681 2553 2681 
Q 2122 2681 1889 2404 
Q 1656 2128 1656 1613 
L 1656 0 
L 538 0 
L 538 3500 
L 1656 3500 
L 1656 2925 
Q 1872 3269 2151 3426 
Q 2431 3584 2822 3584 
Q 2878 3584 2943 3579 
Q 3009 3575 3134 3559 
L 3138 2547 
z
" transform="scale(0.015625)"/>
      <path id="DejaVuSans-Bold-44" d="M 1791 3756 
L 1791 909 
L 2222 909 
Q 2959 909 3348 1275 
Q 3738 1641 3738 2338 
Q 3738 3031 3350 3393 
Q 2963 3756 2222 3756 
L 1791 3756 
z
M 588 4666 
L 1856 4666 
Q 2919 4666 3439 4514 
Q 3959 4363 4331 4000 
Q 4659 3684 4818 3271 
Q 4978 2859 4978 2338 
Q 4978 1809 4818 1395 
Q 4659 981 4331 666 
Q 3956 303 3431 151 
Q 2906 0 1856 0 
L 588 0 
L 588 4666 
z
" transform="scale(0.015625)"/>
      <path id="DejaVuSans-Bold-6c" d="M 538 4863 
L 1656 4863 
L 1656 0 
L 538 0 
L 538 4863 
z
" transform="scale(0.015625)"/>
      <path id="DejaVuSans-Bold-61" d="M 2106 1575 
Q 1756 1575 1579 1456 
Q 1403 1338 1403 1106 
Q 1403 894 1545 773 
Q 1688 653 1941 653 
Q 2256 653 2472 879 
Q 2688 1106 2688 1447 
L 2688 1575 
L 2106 1575 
z
M 3816 1997 
L 3816 0 
L 2688 0 
L 2688 519 
Q 2463 200 2181 54 
Q 1900 -91 1497 -91 
Q 953 -91 614 226 
Q 275 544 275 1050 
Q 275 1666 698 1953 
Q 1122 2241 2028 2241 
L 2688 2241 
L 2688 2328 
Q 2688 2594 2478 2717 
Q 2269 2841 1825 2841 
Q 1466 2841 1156 2769 
Q 847 2697 581 2553 
L 581 3406 
Q 941 3494 1303 3539 
Q 1666 3584 2028 3584 
Q 2975 3584 3395 3211 
Q 3816 2838 3816 1997 
z
" transform="scale(0.015625)"/>
      <path id="DejaVuSans-Bold-79" d="M 78 3500 
L 1197 3500 
L 2138 1125 
L 2938 3500 
L 4056 3500 
L 2584 -331 
Q 2363 -916 2067 -1148 
Q 1772 -1381 1288 -1381 
L 641 -1381 
L 641 -647 
L 991 -647 
Q 1275 -647 1404 -556 
Q 1534 -466 1606 -231 
L 1638 -134 
L 78 3500 
z
" transform="scale(0.015625)"/>
      <path id="DejaVuSans-Bold-73" d="M 3272 3391 
L 3272 2541 
Q 2913 2691 2578 2766 
Q 2244 2841 1947 2841 
Q 1628 2841 1473 2761 
Q 1319 2681 1319 2516 
Q 1319 2381 1436 2309 
Q 1553 2238 1856 2203 
L 2053 2175 
Q 2913 2066 3209 1816 
Q 3506 1566 3506 1031 
Q 3506 472 3093 190 
Q 2681 -91 1863 -91 
Q 1516 -91 1145 -36 
Q 775 19 384 128 
L 384 978 
Q 719 816 1070 734 
Q 1422 653 1784 653 
Q 2113 653 2278 743 
Q 2444 834 2444 1013 
Q 2444 1163 2330 1236 
Q 2216 1309 1875 1350 
L 1678 1375 
Q 931 1469 631 1722 
Q 331 1975 331 2491 
Q 331 3047 712 3315 
Q 1094 3584 1881 3584 
Q 2191 3584 2531 3537 
Q 2872 3491 3272 3391 
z
" transform="scale(0.015625)"/>
      <path id="DejaVuSans-Bold-69" d="M 538 3500 
L 1656 3500 
L 1656 0 
L 538 0 
L 538 3500 
z
M 538 4863 
L 1656 4863 
L 1656 3950 
L 538 3950 
L 538 4863 
z
" transform="scale(0.015625)"/>
      <path id="DejaVuSans-Bold-66" d="M 2841 4863 
L 2841 4128 
L 2222 4128 
Q 1984 4128 1890 4042 
Q 1797 3956 1797 3744 
L 1797 3500 
L 2753 3500 
L 2753 2700 
L 1797 2700 
L 1797 0 
L 678 0 
L 678 2700 
L 122 2700 
L 122 3500 
L 678 3500 
L 678 3744 
Q 678 4316 997 4589 
Q 1316 4863 1984 4863 
L 2841 4863 
z
" transform="scale(0.015625)"/>
      <path id="DejaVuSans-Bold-63" d="M 3366 3391 
L 3366 2478 
Q 3138 2634 2908 2709 
Q 2678 2784 2431 2784 
Q 1963 2784 1702 2511 
Q 1441 2238 1441 1747 
Q 1441 1256 1702 982 
Q 1963 709 2431 709 
Q 2694 709 2930 787 
Q 3166 866 3366 1019 
L 3366 103 
Q 3103 6 2833 -42 
Q 2563 -91 2291 -91 
Q 1344 -91 809 395 
Q 275 881 275 1747 
Q 275 2613 809 3098 
Q 1344 3584 2291 3584 
Q 2566 3584 2833 3536 
Q 3100 3488 3366 3391 
z
" transform="scale(0.015625)"/>
      <path id="DejaVuSans-Bold-74" d="M 1759 4494 
L 1759 3500 
L 2913 3500 
L 2913 2700 
L 1759 2700 
L 1759 1216 
Q 1759 972 1856 886 
Q 1953 800 2241 800 
L 2816 800 
L 2816 0 
L 1856 0 
Q 1194 0 917 276 
Q 641 553 641 1216 
L 641 2700 
L 84 2700 
L 84 3500 
L 641 3500 
L 641 4494 
L 1759 4494 
z
" transform="scale(0.015625)"/>
      <path id="DejaVuSans-Bold-6f" d="M 2203 2784 
Q 1831 2784 1636 2517 
Q 1441 2250 1441 1747 
Q 1441 1244 1636 976 
Q 1831 709 2203 709 
Q 2569 709 2762 976 
Q 2956 1244 2956 1747 
Q 2956 2250 2762 2517 
Q 2569 2784 2203 2784 
z
M 2203 3584 
Q 3106 3584 3614 3096 
Q 4122 2609 4122 1747 
Q 4122 884 3614 396 
Q 3106 -91 2203 -91 
Q 1297 -91 786 396 
Q 275 884 275 1747 
Q 275 2609 786 3096 
Q 1297 3584 2203 3584 
z
" transform="scale(0.015625)"/>
      <path id="DejaVuSans-Bold-6e" d="M 4056 2131 
L 4056 0 
L 2931 0 
L 2931 347 
L 2931 1631 
Q 2931 2084 2911 2256 
Q 2891 2428 2841 2509 
Q 2775 2619 2662 2680 
Q 2550 2741 2406 2741 
Q 2056 2741 1856 2470 
Q 1656 2200 1656 1722 
L 1656 0 
L 538 0 
L 538 3500 
L 1656 3500 
L 1656 2988 
Q 1909 3294 2193 3439 
Q 2478 3584 2822 3584 
Q 3428 3584 3742 3212 
Q 4056 2841 4056 2131 
z
" transform="scale(0.015625)"/>
     </defs>
     <use xlink:href="#DejaVuSans-Bold-52"/>
     <use xlink:href="#DejaVuSans-Bold-4f" transform="translate(77.001953 0)"/>
     <use xlink:href="#DejaVuSans-Bold-43" transform="translate(162.011719 0)"/>
     <use xlink:href="#DejaVuSans-Bold-20" transform="translate(235.400391 0)"/>
     <use xlink:href="#DejaVuSans-Bold-2014" transform="translate(270.214844 0)"/>
     <use xlink:href="#DejaVuSans-Bold-20" transform="translate(370.214844 0)"/>
     <use xlink:href="#DejaVuSans-Bold-53" transform="translate(405.029297 0)"/>
     <use xlink:href="#DejaVuSans-Bold-65" transform="translate(477.050781 0)"/>
     <use xlink:href="#DejaVuSans-Bold-76" transform="translate(544.873047 0)"/>
     <use xlink:href="#DejaVuSans-Bold-65" transform="translate(610.058594 0)"/>
     <use xlink:href="#DejaVuSans-Bold-72" transform="translate(677.880859 0)"/>
     <use xlink:href="#DejaVuSans-Bold-65" transform="translate(727.197266 0)"/>
     <use xlink:href="#DejaVuSans-Bold-20" transform="translate(795.019531 0)"/>
     <use xlink:href="#DejaVuSans-Bold-44" transform="translate(829.833984 0)"/>
     <use xlink:href="#DejaVuSans-Bold-65" transform="translate(912.841797 0)"/>
     <use xlink:href="#DejaVuSans-Bold-6c" transform="translate(980.664062 0)"/>
     <use xlink:href="#DejaVuSans-Bold-61" transform="translate(1014.941406 0)"/>
     <use xlink:href="#DejaVuSans-Bold-79" transform="translate(1079.296875 0)"/>
     <use xlink:href="#DejaVuSans-Bold-20" transform="translate(1144.482422 0)"/>
     <use xlink:href="#DejaVuSans-Bold-44" transform="translate(1179.296875 0)"/>
     <use xlink:href="#DejaVuSans-Bold-61" transform="translate(1262.304688 0)"/>
     <use xlink:href="#DejaVuSans-Bold-79" transform="translate(1326.660156 0)"/>
     <use xlink:href="#DejaVuSans-Bold-20" transform="translate(1391.845703 0)"/>
     <use xlink:href="#DejaVuSans-Bold-43" transform="translate(1426.660156 0)"/>
     <use xlink:href="#DejaVuSans-Bold-6c" transform="translate(1500.048828 0)"/>
     <use xlink:href="#DejaVuSans-Bold-61" transform="translate(1534.326172 0)"/>
     <use xlink:href="#DejaVuSans-Bold-73" transform="translate(1601.806641 0)"/>
     <use xlink:href="#DejaVuSans-Bold-73" transform="translate(1661.328125 0)"/>
     <use xlink:href="#DejaVuSans-Bold-69" transform="translate(1720.849609 0)"/>
     <use xlink:href="#DejaVuSans-Bold-66" transform="translate(1755.126953 0)"/>
     <use xlink:href="#DejaVuSans-Bold-69" transform="translate(1798.632812 0)"/>
     <use xlink:href="#DejaVuSans-Bold-63" transform="translate(1832.910156 0)"/>
     <use xlink:href="#DejaVuSans-Bold-61" transform="translate(1892.1875 0)"/>
     <use xlink:href="#DejaVuSans-Bold-74" transform="translate(1959.667969 0)"/>
     <use xlink:href="#DejaVuSans-Bold-69" transform="translate(2007.470703 0)"/>
     <use xlink:href="#DejaVuSans-Bold-6f" transform="translate(2041.748047 0)"/>
     <use xlink:href="#DejaVuSans-Bold-6e" transform="translate(2110.449219 0)"/>
    </g>
   </g>
   <g id="legend_1">
    <g id="patch_7">
     <path d="M 208.386719 273.958281 
L 367.13125 273.958281 
Q 368.93125 273.958281 368.93125 272.158281 
L 368.93125 233.427344 
Q 368.93125 231.627344 367.13125 231.627344 
L 208.386719 231.627344 
Q 206.586719 231.627344 206.586719 233.427344 
L 206.586719 272.158281 
Q 206.586719 273.958281 208.386719 273.958281 
z
" style="fill: #ffffff; opacity: 0.8; stroke: #cccccc; stroke-linejoin: miter"/>
    </g>
    <g id="line2d_29">
     <path d="M 210.186719 238.915937 
L 219.186719 238.915937 
L 228.186719 238.915937 
" style="fill: none; stroke: #1a9641; stroke-width: 2; stroke-linecap: square"/>
    </g>
    <g id="text_16">
     <!-- Logistic Reg (AUC=0.651) -->
     <g transform="translate(235.386719 242.065937) scale(0.09 -0.09)">
      <defs>
       <path id="DejaVuSans-4c" d="M 628 4666 
L 1259 4666 
L 1259 531 
L 3531 531 
L 3531 0 
L 628 0 
L 628 4666 
z
" transform="scale(0.015625)"/>
       <path id="DejaVuSans-67" d="M 2906 1791 
Q 2906 2416 2648 2759 
Q 2391 3103 1925 3103 
Q 1463 3103 1205 2759 
Q 947 2416 947 1791 
Q 947 1169 1205 825 
Q 1463 481 1925 481 
Q 2391 481 2648 825 
Q 2906 1169 2906 1791 
z
M 3481 434 
Q 3481 -459 3084 -895 
Q 2688 -1331 1869 -1331 
Q 1566 -1331 1297 -1286 
Q 1028 -1241 775 -1147 
L 775 -588 
Q 1028 -725 1275 -790 
Q 1522 -856 1778 -856 
Q 2344 -856 2625 -561 
Q 2906 -266 2906 331 
L 2906 616 
Q 2728 306 2450 153 
Q 2172 0 1784 0 
Q 1141 0 747 490 
Q 353 981 353 1791 
Q 353 2603 747 3093 
Q 1141 3584 1784 3584 
Q 2172 3584 2450 3431 
Q 2728 3278 2906 2969 
L 2906 3500 
L 3481 3500 
L 3481 434 
z
" transform="scale(0.015625)"/>
       <path id="DejaVuSans-63" d="M 3122 3366 
L 3122 2828 
Q 2878 2963 2633 3030 
Q 2388 3097 2138 3097 
Q 1578 3097 1268 2742 
Q 959 2388 959 1747 
Q 959 1106 1268 751 
Q 1578 397 2138 397 
Q 2388 397 2633 464 
Q 2878 531 3122 666 
L 3122 134 
Q 2881 22 2623 -34 
Q 2366 -91 2075 -91 
Q 1284 -91 818 406 
Q 353 903 353 1747 
Q 353 2603 823 3093 
Q 1294 3584 2113 3584 
Q 2378 3584 2631 3529 
Q 2884 3475 3122 3366 
z
" transform="scale(0.015625)"/>
       <path id="DejaVuSans-52" d="M 2841 2188 
Q 3044 2119 3236 1894 
Q 3428 1669 3622 1275 
L 4263 0 
L 3584 0 
L 2988 1197 
Q 2756 1666 2539 1819 
Q 2322 1972 1947 1972 
L 1259 1972 
L 1259 0 
L 628 0 
L 628 4666 
L 2053 4666 
Q 2853 4666 3247 4331 
Q 3641 3997 3641 3322 
Q 3641 2881 3436 2590 
Q 3231 2300 2841 2188 
z
M 1259 4147 
L 1259 2491 
L 2053 2491 
Q 2509 2491 2742 2702 
Q 2975 2913 2975 3322 
Q 2975 3731 2742 3939 
Q 2509 4147 2053 4147 
L 1259 4147 
z
" transform="scale(0.015625)"/>
       <path id="DejaVuSans-28" d="M 1984 4856 
Q 1566 4138 1362 3434 
Q 1159 2731 1159 2009 
Q 1159 1288 1364 580 
Q 1569 -128 1984 -844 
L 1484 -844 
Q 1016 -109 783 600 
Q 550 1309 550 2009 
Q 550 2706 781 3412 
Q 1013 4119 1484 4856 
L 1984 4856 
z
" transform="scale(0.015625)"/>
       <path id="DejaVuSans-41" d="M 2188 4044 
L 1331 1722 
L 3047 1722 
L 2188 4044 
z
M 1831 4666 
L 2547 4666 
L 4325 0 
L 3669 0 
L 3244 1197 
L 1141 1197 
L 716 0 
L 50 0 
L 1831 4666 
z
" transform="scale(0.015625)"/>
       <path id="DejaVuSans-55" d="M 556 4666 
L 1191 4666 
L 1191 1831 
Q 1191 1081 1462 751 
Q 1734 422 2344 422 
Q 2950 422 3222 751 
Q 3494 1081 3494 1831 
L 3494 4666 
L 4128 4666 
L 4128 1753 
Q 4128 841 3676 375 
Q 3225 -91 2344 -91 
Q 1459 -91 1007 375 
Q 556 841 556 1753 
L 556 4666 
z
" transform="scale(0.015625)"/>
       <path id="DejaVuSans-43" d="M 4122 4306 
L 4122 3641 
Q 3803 3938 3442 4084 
Q 3081 4231 2675 4231 
Q 1875 4231 1450 3742 
Q 1025 3253 1025 2328 
Q 1025 1406 1450 917 
Q 1875 428 2675 428 
Q 3081 428 3442 575 
Q 3803 722 4122 1019 
L 4122 359 
Q 3791 134 3420 21 
Q 3050 -91 2638 -91 
Q 1578 -91 968 557 
Q 359 1206 359 2328 
Q 359 3453 968 4101 
Q 1578 4750 2638 4750 
Q 3056 4750 3426 4639 
Q 3797 4528 4122 4306 
z
" transform="scale(0.015625)"/>
       <path id="DejaVuSans-3d" d="M 678 2906 
L 4684 2906 
L 4684 2381 
L 678 2381 
L 678 2906 
z
M 678 1631 
L 4684 1631 
L 4684 1100 
L 678 1100 
L 678 1631 
z
" transform="scale(0.015625)"/>
       <path id="DejaVuSans-35" d="M 691 4666 
L 3169 4666 
L 3169 4134 
L 1269 4134 
L 1269 2991 
Q 1406 3038 1543 3061 
Q 1681 3084 1819 3084 
Q 2600 3084 3056 2656 
Q 3513 2228 3513 1497 
Q 3513 744 3044 326 
Q 2575 -91 1722 -91 
Q 1428 -91 1123 -41 
Q 819 9 494 109 
L 494 744 
Q 775 591 1075 516 
Q 1375 441 1709 441 
Q 2250 441 2565 725 
Q 2881 1009 2881 1497 
Q 2881 1984 2565 2268 
Q 2250 2553 1709 2553 
Q 1456 2553 1204 2497 
Q 953 2441 691 2322 
L 691 4666 
z
" transform="scale(0.015625)"/>
       <path id="DejaVuSans-29" d="M 513 4856 
L 1013 4856 
Q 1481 4119 1714 3412 
Q 1947 2706 1947 2009 
Q 1947 1309 1714 600 
Q 1481 -109 1013 -844 
L 513 -844 
Q 928 -128 1133 580 
Q 1338 1288 1338 2009 
Q 1338 2731 1133 3434 
Q 928 4138 513 4856 
z
" transform="scale(0.015625)"/>
      </defs>
      <use xlink:href="#DejaVuSans-4c"/>
      <use xlink:href="#DejaVuSans-6f" transform="translate(53.962891 0)"/>
      <use xlink:href="#DejaVuSans-67" transform="translate(115.144531 0)"/>
      <use xlink:href="#DejaVuSans-69" transform="translate(178.621094 0)"/>
      <use xlink:href="#DejaVuSans-73" transform="translate(206.404297 0)"/>
      <use xlink:href="#DejaVuSans-74" transform="translate(258.503906 0)"/>
      <use xlink:href="#DejaVuSans-69" transform="translate(297.712891 0)"/>
      <use xlink:href="#DejaVuSans-63" transform="translate(325.496094 0)"/>
      <use xlink:href="#DejaVuSans-20" transform="translate(380.476562 0)"/>
      <use xlink:href="#DejaVuSans-52" transform="translate(412.263672 0)"/>
      <use xlink:href="#DejaVuSans-65" transform="translate(477.246094 0)"/>
      <use xlink:href="#DejaVuSans-67" transform="translate(538.769531 0)"/>
      <use xlink:href="#DejaVuSans-20" transform="translate(602.246094 0)"/>
      <use xlink:href="#DejaVuSans-28" transform="translate(634.033203 0)"/>
      <use xlink:href="#DejaVuSans-41" transform="translate(673.046875 0)"/>
      <use xlink:href="#DejaVuSans-55" transform="translate(741.455078 0)"/>
      <use xlink:href="#DejaVuSans-43" transform="translate(814.648438 0)"/>
      <use xlink:href="#DejaVuSans-3d" transform="translate(884.472656 0)"/>
      <use xlink:href="#DejaVuSans-30" transform="translate(968.261719 0)"/>
      <use xlink:href="#DejaVuSans-2e" transform="translate(1031.884766 0)"/>
      <use xlink:href="#DejaVuSans-36" transform="translate(1063.671875 0)"/>
      <use xlink:href="#DejaVuSans-35" transform="translate(1127.294922 0)"/>
      <use xlink:href="#DejaVuSans-31" transform="translate(1190.917969 0)"/>
      <use xlink:href="#DejaVuSans-29" transform="translate(1254.541016 0)"/>
     </g>
    </g>
    <g id="line2d_30">
     <path d="M 210.186719 252.12625 
L 219.186719 252.12625 
L 228.186719 252.12625 
" style="fill: none; stroke: #fdae61; stroke-width: 2; stroke-linecap: square"/>
    </g>
    <g id="text_17">
     <!-- Random Forest (AUC=0.623) -->
     <g transform="translate(235.386719 255.27625) scale(0.09 -0.09)">
      <defs>
       <path id="DejaVuSans-6e" d="M 3513 2113 
L 3513 0 
L 2938 0 
L 2938 2094 
Q 2938 2591 2744 2837 
Q 2550 3084 2163 3084 
Q 1697 3084 1428 2787 
Q 1159 2491 1159 1978 
L 1159 0 
L 581 0 
L 581 3500 
L 1159 3500 
L 1159 2956 
Q 1366 3272 1645 3428 
Q 1925 3584 2291 3584 
Q 2894 3584 3203 3211 
Q 3513 2838 3513 2113 
z
" transform="scale(0.015625)"/>
       <path id="DejaVuSans-64" d="M 2906 2969 
L 2906 4863 
L 3481 4863 
L 3481 0 
L 2906 0 
L 2906 525 
Q 2725 213 2448 61 
Q 2172 -91 1784 -91 
Q 1150 -91 751 415 
Q 353 922 353 1747 
Q 353 2572 751 3078 
Q 1150 3584 1784 3584 
Q 2172 3584 2448 3432 
Q 2725 3281 2906 2969 
z
M 947 1747 
Q 947 1113 1208 752 
Q 1469 391 1925 391 
Q 2381 391 2643 752 
Q 2906 1113 2906 1747 
Q 2906 2381 2643 2742 
Q 2381 3103 1925 3103 
Q 1469 3103 1208 2742 
Q 947 2381 947 1747 
z
" transform="scale(0.015625)"/>
       <path id="DejaVuSans-6d" d="M 3328 2828 
Q 3544 3216 3844 3400 
Q 4144 3584 4550 3584 
Q 5097 3584 5394 3201 
Q 5691 2819 5691 2113 
L 5691 0 
L 5113 0 
L 5113 2094 
Q 5113 2597 4934 2840 
Q 4756 3084 4391 3084 
Q 3944 3084 3684 2787 
Q 3425 2491 3425 1978 
L 3425 0 
L 2847 0 
L 2847 2094 
Q 2847 2600 2669 2842 
Q 2491 3084 2119 3084 
Q 1678 3084 1418 2786 
Q 1159 2488 1159 1978 
L 1159 0 
L 581 0 
L 581 3500 
L 1159 3500 
L 1159 2956 
Q 1356 3278 1631 3431 
Q 1906 3584 2284 3584 
Q 2666 3584 2933 3390 
Q 3200 3197 3328 2828 
z
" transform="scale(0.015625)"/>
       <path id="DejaVuSans-33" d="M 2597 2516 
Q 3050 2419 3304 2112 
Q 3559 1806 3559 1356 
Q 3559 666 3084 287 
Q 2609 -91 1734 -91 
Q 1441 -91 1130 -33 
Q 819 25 488 141 
L 488 750 
Q 750 597 1062 519 
Q 1375 441 1716 441 
Q 2309 441 2620 675 
Q 2931 909 2931 1356 
Q 2931 1769 2642 2001 
Q 2353 2234 1838 2234 
L 1294 2234 
L 1294 2753 
L 1863 2753 
Q 2328 2753 2575 2939 
Q 2822 3125 2822 3475 
Q 2822 3834 2567 4026 
Q 2313 4219 1838 4219 
Q 1578 4219 1281 4162 
Q 984 4106 628 3988 
L 628 4550 
Q 988 4650 1302 4700 
Q 1616 4750 1894 4750 
Q 2613 4750 3031 4423 
Q 3450 4097 3450 3541 
Q 3450 3153 3228 2886 
Q 3006 2619 2597 2516 
z
" transform="scale(0.015625)"/>
      </defs>
      <use xlink:href="#DejaVuSans-52"/>
      <use xlink:href="#DejaVuSans-61" transform="translate(67.232422 0)"/>
      <use xlink:href="#DejaVuSans-6e" transform="translate(128.511719 0)"/>
      <use xlink:href="#DejaVuSans-64" transform="translate(191.890625 0)"/>
      <use xlink:href="#DejaVuSans-6f" transform="translate(255.367188 0)"/>
      <use xlink:href="#DejaVuSans-6d" transform="translate(316.548828 0)"/>
      <use xlink:href="#DejaVuSans-20" transform="translate(413.960938 0)"/>
      <use xlink:href="#DejaVuSans-46" transform="translate(445.748047 0)"/>
      <use xlink:href="#DejaVuSans-6f" transform="translate(499.642578 0)"/>
      <use xlink:href="#DejaVuSans-72" transform="translate(560.824219 0)"/>
      <use xlink:href="#DejaVuSans-65" transform="translate(599.6875 0)"/>
      <use xlink:href="#DejaVuSans-73" transform="translate(661.210938 0)"/>
      <use xlink:href="#DejaVuSans-74" transform="translate(713.310547 0)"/>
      <use xlink:href="#DejaVuSans-20" transform="translate(752.519531 0)"/>
      <use xlink:href="#DejaVuSans-28" transform="translate(784.306641 0)"/>
      <use xlink:href="#DejaVuSans-41" transform="translate(823.320312 0)"/>
      <use xlink:href="#DejaVuSans-55" transform="translate(891.728516 0)"/>
      <use xlink:href="#DejaVuSans-43" transform="translate(964.921875 0)"/>
      <use xlink:href="#DejaVuSans-3d" transform="translate(1034.746094 0)"/>
      <use xlink:href="#DejaVuSans-30" transform="translate(1118.535156 0)"/>
      <use xlink:href="#DejaVuSans-2e" transform="translate(1182.158203 0)"/>
      <use xlink:href="#DejaVuSans-36" transform="translate(1213.945312 0)"/>
      <use xlink:href="#DejaVuSans-32" transform="translate(1277.568359 0)"/>
      <use xlink:href="#DejaVuSans-33" transform="translate(1341.191406 0)"/>
      <use xlink:href="#DejaVuSans-29" transform="translate(1404.814453 0)"/>
     </g>
    </g>
    <g id="line2d_31">
     <path d="M 210.186719 265.336562 
L 219.186719 265.336562 
L 228.186719 265.336562 
" style="fill: none; stroke: #d7191c; stroke-width: 2.4; stroke-linecap: square"/>
    </g>
    <g id="text_18">
     <!-- XGBoost (AUC=0.565) -->
     <g transform="translate(235.386719 268.486562) scale(0.09 -0.09)">
      <defs>
       <path id="DejaVuSans-58" d="M 403 4666 
L 1081 4666 
L 2241 2931 
L 3406 4666 
L 4084 4666 
L 2584 2425 
L 4184 0 
L 3506 0 
L 2194 1984 
L 872 0 
L 191 0 
L 1856 2491 
L 403 4666 
z
" transform="scale(0.015625)"/>
       <path id="DejaVuSans-47" d="M 3809 666 
L 3809 1919 
L 2778 1919 
L 2778 2438 
L 4434 2438 
L 4434 434 
Q 4069 175 3628 42 
Q 3188 -91 2688 -91 
Q 1594 -91 976 548 
Q 359 1188 359 2328 
Q 359 3472 976 4111 
Q 1594 4750 2688 4750 
Q 3144 4750 3555 4637 
Q 3966 4525 4313 4306 
L 4313 3634 
Q 3963 3931 3569 4081 
Q 3175 4231 2741 4231 
Q 1884 4231 1454 3753 
Q 1025 3275 1025 2328 
Q 1025 1384 1454 906 
Q 1884 428 2741 428 
Q 3075 428 3337 486 
Q 3600 544 3809 666 
z
" transform="scale(0.015625)"/>
       <path id="DejaVuSans-42" d="M 1259 2228 
L 1259 519 
L 2272 519 
Q 2781 519 3026 730 
Q 3272 941 3272 1375 
Q 3272 1813 3026 2020 
Q 2781 2228 2272 2228 
L 1259 2228 
z
M 1259 4147 
L 1259 2741 
L 2194 2741 
Q 2656 2741 2882 2914 
Q 3109 3088 3109 3444 
Q 3109 3797 2882 3972 
Q 2656 4147 2194 4147 
L 1259 4147 
z
M 628 4666 
L 2241 4666 
Q 2963 4666 3353 4366 
Q 3744 4066 3744 3513 
Q 3744 3084 3544 2831 
Q 3344 2578 2956 2516 
Q 3422 2416 3680 2098 
Q 3938 1781 3938 1306 
Q 3938 681 3513 340 
Q 3088 0 2303 0 
L 628 0 
L 628 4666 
z
" transform="scale(0.015625)"/>
      </defs>
      <use xlink:href="#DejaVuSans-58"/>
      <use xlink:href="#DejaVuSans-47" transform="translate(68.505859 0)"/>
      <use xlink:href="#DejaVuSans-42" transform="translate(145.996094 0)"/>
      <use xlink:href="#DejaVuSans-6f" transform="translate(214.599609 0)"/>
      <use xlink:href="#DejaVuSans-6f" transform="translate(275.78125 0)"/>
      <use xlink:href="#DejaVuSans-73" transform="translate(336.962891 0)"/>
      <use xlink:href="#DejaVuSans-74" transform="translate(389.0625 0)"/>
      <use xlink:href="#DejaVuSans-20" transform="translate(428.271484 0)"/>
      <use xlink:href="#DejaVuSans-28" transform="translate(460.058594 0)"/>
      <use xlink:href="#DejaVuSans-41" transform="translate(499.072266 0)"/>
      <use xlink:href="#DejaVuSans-55" transform="translate(567.480469 0)"/>
      <use xlink:href="#DejaVuSans-43" transform="translate(640.673828 0)"/>
      <use xlink:href="#DejaVuSans-3d" transform="translate(710.498047 0)"/>
      <use xlink:href="#DejaVuSans-30" transform="translate(794.287109 0)"/>
      <use xlink:href="#DejaVuSans-2e" transform="translate(857.910156 0)"/>
      <use xlink:href="#DejaVuSans-35" transform="translate(889.697266 0)"/>
      <use xlink:href="#DejaVuSans-36" transform="translate(953.320312 0)"/>
      <use xlink:href="#DejaVuSans-35" transform="translate(1016.943359 0)"/>
      <use xlink:href="#DejaVuSans-29" transform="translate(1080.566406 0)"/>
     </g>
    </g>
   </g>
  </g>
 </g>
 <defs>
  <clipPath id="pe72b978c63">
   <rect x="43.78125" y="21.558281" width="329.65" height="256.9"/>
  </clipPath>
 </defs>
</svg>
